<?xml version="1.0" encoding="UTF-8" standalone="no"?>
<!DOCTYPE svg PUBLIC "-//W3C//DTD SVG 1.1//EN"
 "http://www.w3.org/Graphics/SVG/1.1/DTD/svg11.dtd">
<!-- Generated by graphviz version 6.0.2 (20221011.1828)
 -->
<!-- Title: FlowGraph Pages: 1 -->
<svg width="588pt" height="2605pt"
 viewBox="0.00 0.00 588.34 2605.00" xmlns="http://www.w3.org/2000/svg" xmlns:xlink="http://www.w3.org/1999/xlink">
<g id="graph0" class="graph" transform="scale(1 1) rotate(0) translate(4 2601)">
<title>FlowGraph</title>
<polygon fill="white" stroke="none" points="-4,4 -4,-2601 584.34,-2601 584.34,4 -4,4"/>
<text text-anchor="middle" x="290.17" y="-52.8" font-family="Times New Roman,serif" font-size="14.00">System.Runtime.CompilerServices.CastHelpers:StelemRef(System.Array,int,System.Object)</text>
<text text-anchor="middle" x="290.17" y="-37.8" font-family="Times New Roman,serif" font-size="14.00">generic ARM64 CPU &#45; Windows</text>
<text text-anchor="middle" x="290.17" y="-22.8" font-family="Times New Roman,serif" font-size="14.00">Optimized Code: True</text>
<text text-anchor="middle" x="290.17" y="-7.8" font-family="Times New Roman,serif" font-size="14.00"> Total Bytes of Code 132</text>
<g id="clust1" class="cluster">
<title>cluster_1</title>
<polygon fill="none" stroke="none" points="8,-76 8,-2589 558,-2589 558,-76 8,-76"/>
<text text-anchor="middle" x="283" y="-2573.8" font-family="Times New Roman,serif" font-size="14.00">System.Runtime.CompilerServices.CastHelpers:StelemRef(System.Array,int,System.Object)</text>
<text text-anchor="middle" x="283" y="-2558.8" font-family="Times New Roman,serif" font-size="14.00">generic ARM64 CPU &#45; Windows</text>
<text text-anchor="middle" x="283" y="-2543.8" font-family="Times New Roman,serif" font-size="14.00">Optimized Code: True</text>
<text text-anchor="middle" x="283" y="-2528.8" font-family="Times New Roman,serif" font-size="14.00"> Total Bytes of Code 132</text>
</g>
<!-- IG01 -->
<g id="node1" class="node">
<title>IG01</title>
<polygon fill="#ffffcc" stroke="black" points="448.5,-2513 193.5,-2513 193.5,-2346 448.5,-2346 448.5,-2513"/>
<polygon fill="#fcfbfd" stroke="none" points="201.5,-2350 201.5,-2509 440.5,-2509 440.5,-2350 201.5,-2350"/>
<text text-anchor="start" x="300" y="-2483.9" font-family="Courier New" font-weight="bold" font-size="17.00">IG01</text>
<text text-anchor="start" x="218" y="-2452.3" font-family="Courier New" font-size="14.00"> Weight: 1 Perfscore: 1.5</text>
<text text-anchor="start" x="313" y="-2423.3" font-family="Courier New" font-size="14.00"> &#160;</text>
<text text-anchor="start" x="214" y="-2394.3" font-family="Courier New" font-size="14.00">stp &#160;&#160;&#160;&#160;fp, lr, [sp,#&#45;16]!</text>
<text text-anchor="start" x="214" y="-2365.3" font-family="Courier New" font-size="14.00">mov &#160;&#160;&#160;&#160;fp, sp</text>
</g>
<!-- IG02 -->
<g id="node2" class="node">
<title>IG02</title>
<polygon fill="#800026" stroke="black" points="440.5,-2310 201.5,-2310 201.5,-1911 440.5,-1911 440.5,-2310"/>
<polygon fill="#fcfbfd" stroke="none" points="209.5,-1915 209.5,-2306 432.5,-2306 432.5,-1915 209.5,-1915"/>
<text text-anchor="start" x="300" y="-2280.9" font-family="Courier New" font-weight="bold" font-size="17.00">IG02</text>
<text text-anchor="start" x="222" y="-2249.3" font-family="Courier New" font-size="14.00"> Weight: 1 Perfscore: 14</text>
<text text-anchor="start" x="313" y="-2220.3" font-family="Courier New" font-size="14.00"> &#160;</text>
<text text-anchor="start" x="222" y="-2191.3" font-family="Courier New" font-size="14.00">ldr &#160;&#160;&#160;&#160;w3, [x0,#8]</text>
<text text-anchor="start" x="222" y="-2162.3" font-family="Courier New" font-size="14.00">cmp &#160;&#160;&#160;&#160;w1, w3</text>
<text text-anchor="start" x="222" y="-2134.3" font-family="Courier New" font-weight="bold" font-size="14.00">bhs &#160;&#160;&#160;&#160;IG10</text>
<text text-anchor="start" x="222" y="-2104.3" font-family="Courier New" font-size="14.00">sxtw &#160;&#160;&#160;x1, x1</text>
<text text-anchor="start" x="222" y="-2075.3" font-family="Courier New" font-size="14.00">lsl &#160;&#160;&#160;&#160;x1, x1, #3</text>
<text text-anchor="start" x="222" y="-2046.3" font-family="Courier New" font-size="14.00">add &#160;&#160;&#160;&#160;x1, x1, #16</text>
<text text-anchor="start" x="222" y="-2017.3" font-family="Courier New" font-size="14.00">add &#160;&#160;&#160;&#160;x3, x0, x1</text>
<text text-anchor="start" x="222" y="-1988.3" font-family="Courier New" font-size="14.00">ldr &#160;&#160;&#160;&#160;x1, [x0]</text>
<text text-anchor="start" x="222" y="-1959.3" font-family="Courier New" font-size="14.00">ldr &#160;&#160;&#160;&#160;x1, [x1,#56]</text>
<text text-anchor="start" x="222" y="-1931.3" font-family="Courier New" font-weight="bold" font-size="14.00">cbz &#160;&#160;&#160;&#160;x2, IG06</text>
</g>
<!-- IG01&#45;&gt;IG02 -->
<g id="edge1" class="edge">
<title>IG01&#45;&gt;IG02</title>
<path fill="none" stroke="blue" d="M314.99,-2345.63C314.81,-2337.43 314.67,-2328.88 314.56,-2320.1"/>
<polygon fill="blue" stroke="blue" points="318.06,-2320.06 314.45,-2310.1 311.06,-2320.14 318.06,-2320.06"/>
</g>
<!-- IG01&#45;&gt;IG02 -->
<!-- IG03 -->
<g id="node3" class="node">
<title>IG03</title>
<polygon fill="#ffeda0" stroke="black" points="457,-1875 185,-1875 185,-1679 457,-1679 457,-1875"/>
<polygon fill="#fcfbfd" stroke="none" points="193,-1683 193,-1871 449,-1871 449,-1683 193,-1683"/>
<text text-anchor="start" x="299.5" y="-1846.4" font-family="Courier New" font-weight="bold" font-size="17.00">IG03</text>
<text text-anchor="start" x="205" y="-1814.8" font-family="Courier New" font-size="14.00"> Weight: 0.5 Perfscore: 2.25</text>
<text text-anchor="start" x="312.5" y="-1785.8" font-family="Courier New" font-size="14.00"> &#160;</text>
<text text-anchor="start" x="205" y="-1756.8" font-family="Courier New" font-size="14.00">ldr &#160;&#160;&#160;&#160;x4, [x2]</text>
<text text-anchor="start" x="205" y="-1727.8" font-family="Courier New" font-size="14.00">cmp &#160;&#160;&#160;&#160;x1, x4</text>
<text text-anchor="start" x="205" y="-1699.8" font-family="Courier New" font-weight="bold" font-size="14.00">bne &#160;&#160;&#160;&#160;IG08</text>
</g>
<!-- IG02&#45;&gt;IG03 -->
<g id="edge4" class="edge">
<title>IG02&#45;&gt;IG03</title>
<path fill="none" stroke="blue" d="M314.37,-1910.92C314.43,-1902.2 314.52,-1893.6 314.64,-1885.23"/>
<polygon fill="blue" stroke="blue" points="318.14,-1885.19 314.79,-1875.14 311.14,-1885.09 318.14,-1885.19"/>
</g>
<!-- IG02&#45;&gt;IG03 -->
<!-- IG06 -->
<g id="node6" class="node">
<title>IG06</title>
<polygon fill="#ffffcc" stroke="black" points="394.5,-1208 131.5,-1208 131.5,-1070 394.5,-1070 394.5,-1208"/>
<polygon fill="#fcfbfd" stroke="none" points="139.5,-1074 139.5,-1204 386.5,-1204 386.5,-1074 139.5,-1074"/>
<text text-anchor="start" x="242" y="-1179.4" font-family="Courier New" font-weight="bold" font-size="17.00">IG06</text>
<text text-anchor="start" x="152" y="-1147.8" font-family="Courier New" font-size="14.00"> Weight: 0.5 Perfscore: 0.5</text>
<text text-anchor="start" x="255" y="-1118.8" font-family="Courier New" font-size="14.00"> &#160;</text>
<text text-anchor="start" x="152" y="-1089.8" font-family="Courier New" font-size="14.00">str &#160;&#160;&#160;&#160;xzr, [x3]</text>
</g>
<!-- IG02&#45;&gt;IG06 -->
<g id="edge3" class="edge">
<title>IG02&#45;&gt;IG06</title>
<path fill="none" stroke="blue" d="M201.38,-1924.41C192.33,-1907.95 183.73,-1891.33 176,-1875 88.6,-1690.27 60.57,-1641.58 27,-1440 12.69,-1354.07 -20.58,-1316.97 27,-1244 49.04,-1210.2 84.8,-1187.31 121.9,-1171.84"/>
<polygon fill="blue" stroke="blue" points="123.37,-1175.02 131.36,-1168.06 120.77,-1168.52 123.37,-1175.02"/>
</g>
<!-- IG10 -->
<g id="node10" class="node">
<title>IG10</title>
<polygon fill="#ffffcc" stroke="black" points="492,-251 196,-251 196,-84 492,-84 492,-251"/>
<polygon fill="#fcfbfd" stroke="none" points="204,-88 204,-247 484,-247 484,-88 204,-88"/>
<text text-anchor="start" x="322.5" y="-221.9" font-family="Courier New" font-weight="bold" font-size="17.00">IG10</text>
<text text-anchor="start" x="249" y="-190.3" font-family="Courier New" font-size="14.00"> Weight: 0 Perfscore: 0</text>
<text text-anchor="start" x="335.5" y="-161.3" font-family="Courier New" font-size="14.00"> &#160;</text>
<text text-anchor="start" x="216" y="-132.3" font-family="Courier New" font-size="14.00">bl &#160;&#160;&#160;&#160;&#160;CORINFO_HELP_RNGCHKFAIL</text>
<text text-anchor="start" x="216" y="-103.3" font-family="Courier New" font-size="14.00">bkpt</text>
</g>
<!-- IG02&#45;&gt;IG10 -->
<g id="edge2" class="edge">
<title>IG02&#45;&gt;IG10</title>
<path fill="none" stroke="blue" d="M440.52,-1927.63C449.81,-1910.19 458.49,-1892.48 466,-1875 523.08,-1742.18 549,-1705.06 549,-1560.5 549,-1560.5 549,-1560.5 549,-674 549,-501.94 625.28,-435.86 539,-287 529.1,-269.93 515.67,-255.01 500.46,-242.06"/>
<polygon fill="blue" stroke="blue" points="502.32,-239.06 492.36,-235.46 497.9,-244.49 502.32,-239.06"/>
</g>
<!-- IG04 -->
<g id="node4" class="node">
<title>IG04</title>
<polygon fill="#ffffcc" stroke="black" points="452.5,-1643 189.5,-1643 189.5,-1476 452.5,-1476 452.5,-1643"/>
<polygon fill="#fcfbfd" stroke="none" points="197.5,-1480 197.5,-1639 444.5,-1639 444.5,-1480 197.5,-1480"/>
<text text-anchor="start" x="300" y="-1613.9" font-family="Courier New" font-weight="bold" font-size="17.00">IG04</text>
<text text-anchor="start" x="210" y="-1582.3" font-family="Courier New" font-size="14.00"> Weight: 0.5 Perfscore: 0.5</text>
<text text-anchor="start" x="313" y="-1553.3" font-family="Courier New" font-size="14.00"> &#160;</text>
<text text-anchor="start" x="210" y="-1524.3" font-family="Courier New" font-size="14.00">mov &#160;&#160;&#160;&#160;x0, x3</text>
<text text-anchor="start" x="210" y="-1495.3" font-family="Courier New" font-size="14.00">mov &#160;&#160;&#160;&#160;x1, x2</text>
</g>
<!-- IG03&#45;&gt;IG04 -->
<g id="edge6" class="edge">
<title>IG03&#45;&gt;IG04</title>
<path fill="none" stroke="blue" d="M314.28,-1678.97C314.23,-1670.47 314.24,-1661.88 314.31,-1653.42"/>
<polygon fill="blue" stroke="blue" points="317.81,-1653.21 314.42,-1643.17 310.81,-1653.13 317.81,-1653.21"/>
</g>
<!-- IG03&#45;&gt;IG04 -->
<!-- IG08 -->
<g id="node8" class="node">
<title>IG08</title>
<polygon fill="#ffeda0" stroke="black" points="423,-831 151,-831 151,-519 423,-519 423,-831"/>
<polygon fill="#fcfbfd" stroke="none" points="159,-523 159,-827 415,-827 415,-523 159,-523"/>
<text text-anchor="start" x="265.5" y="-802.4" font-family="Courier New" font-weight="bold" font-size="17.00">IG08</text>
<text text-anchor="start" x="171" y="-770.8" font-family="Courier New" font-size="14.00"> Weight: 0.5 Perfscore: 3.25</text>
<text text-anchor="start" x="278.5" y="-741.8" font-family="Courier New" font-size="14.00"> &#160;</text>
<text text-anchor="start" x="171" y="-712.8" font-family="Courier New" font-size="14.00">ldr &#160;&#160;&#160;&#160;x0, [x0]</text>
<text text-anchor="start" x="171" y="-683.8" font-family="Courier New" font-size="14.00">movz &#160;&#160;&#160;x4, #0x33a8</text>
<text text-anchor="start" x="171" y="-654.8" font-family="Courier New" font-size="14.00">movk &#160;&#160;&#160;x4, #0x850e LSL #16</text>
<text text-anchor="start" x="171" y="-625.8" font-family="Courier New" font-size="14.00">movk &#160;&#160;&#160;x4, #0x7ffd LSL #32</text>
<text text-anchor="start" x="171" y="-596.8" font-family="Courier New" font-size="14.00">cmp &#160;&#160;&#160;&#160;x0, x4</text>
<text text-anchor="start" x="171" y="-568.8" font-family="Courier New" font-weight="bold" font-size="14.00">beq &#160;&#160;&#160;&#160;IG04</text>
<text text-anchor="start" x="171" y="-538.8" font-family="Courier New" font-size="14.00">mov &#160;&#160;&#160;&#160;x0, x3</text>
</g>
<!-- IG03&#45;&gt;IG08 -->
<g id="edge5" class="edge">
<title>IG03&#45;&gt;IG08</title>
<path fill="none" stroke="blue" d="M436.14,-1678.88C445.79,-1667.5 454.65,-1655.47 462,-1643 531.38,-1525.31 529,-1479.62 529,-1343 529,-1343 529,-1343 529,-1138 529,-1030.55 477,-923.44 421.2,-839.44"/>
<polygon fill="blue" stroke="blue" points="424.1,-837.48 415.62,-831.13 418.29,-841.38 424.1,-837.48"/>
</g>
<!-- IG05 -->
<g id="node5" class="node">
<title>IG05</title>
<polygon fill="#ffffcc" stroke="black" points="489.5,-1440 36.5,-1440 36.5,-1244 489.5,-1244 489.5,-1440"/>
<polygon fill="#fcfbfd" stroke="none" points="44.5,-1248 44.5,-1436 481.5,-1436 481.5,-1248 44.5,-1248"/>
<text text-anchor="start" x="242" y="-1411.4" font-family="Courier New" font-weight="bold" font-size="17.00">IG05</text>
<text text-anchor="start" x="160" y="-1379.8" font-family="Courier New" font-size="14.00"> Weight: 0.5 Perfscore: 1</text>
<text text-anchor="start" x="255" y="-1350.8" font-family="Courier New" font-size="14.00"> &#160;</text>
<text text-anchor="start" x="57" y="-1321.8" font-family="Courier New" font-size="14.00">ldp &#160;&#160;&#160;&#160;fp, lr, [sp],#16</text>
<text text-anchor="start" x="57" y="-1292.8" font-family="Courier New" font-size="14.00">b &#160;&#160;&#160;&#160;&#160;&#160;System.Runtime.CompilerServices.CastHelper</text>
<text text-anchor="start" x="57" y="-1263.8" font-family="Courier New" font-size="14.00"> &#160;&#160;&#160;&#160;&#160;&#160;&#160;&#160;&#160;s:WriteBarrier(byref,System.Object)</text>
</g>
<!-- IG04&#45;&gt;IG05 -->
<g id="edge7" class="edge">
<title>IG04&#45;&gt;IG05</title>
<path fill="none" stroke="blue" d="M292.16,-1475.8C289.77,-1467.35 287.38,-1458.68 285.05,-1450.01"/>
<polygon fill="blue" stroke="blue" points="288.41,-1449.01 282.45,-1440.25 281.64,-1450.81 288.41,-1449.01"/>
</g>
<!-- IG04&#45;&gt;IG05 -->
<!-- IG05&#45;&gt;IG06 -->
<!-- IG07 -->
<g id="node7" class="node">
<title>IG07</title>
<polygon fill="#ffffcc" stroke="black" points="386.5,-1034 139.5,-1034 139.5,-867 386.5,-867 386.5,-1034"/>
<polygon fill="#fcfbfd" stroke="none" points="147.5,-871 147.5,-1030 378.5,-1030 378.5,-871 147.5,-871"/>
<text text-anchor="start" x="242" y="-1004.9" font-family="Courier New" font-weight="bold" font-size="17.00">IG07</text>
<text text-anchor="start" x="160" y="-973.3" font-family="Courier New" font-size="14.00"> Weight: 0.5 Perfscore: 1</text>
<text text-anchor="start" x="255" y="-944.3" font-family="Courier New" font-size="14.00"> &#160;</text>
<text text-anchor="start" x="160" y="-915.3" font-family="Courier New" font-size="14.00">ldp &#160;&#160;&#160;&#160;fp, lr, [sp],#16</text>
<text text-anchor="start" x="160" y="-886.3" font-family="Courier New" font-size="14.00">ret &#160;&#160;&#160;&#160;lr</text>
</g>
<!-- IG06&#45;&gt;IG07 -->
<g id="edge8" class="edge">
<title>IG06&#45;&gt;IG07</title>
<path fill="none" stroke="blue" d="M256.47,-1069.88C256.32,-1061.5 256.25,-1052.83 256.25,-1044.17"/>
<polygon fill="blue" stroke="blue" points="259.75,-1044.04 256.29,-1034.02 252.75,-1044.01 259.75,-1044.04"/>
</g>
<!-- IG06&#45;&gt;IG07 -->
<!-- IG07&#45;&gt;IG08 -->
<!-- IG08&#45;&gt;IG04 -->
<g id="edge9" class="edge">
<title>IG08&#45;&gt;IG04</title>
<path fill="none" stroke="green" d="M379.8,-831.26C385.63,-843.19 391.11,-855.18 396,-867 462.46,-1027.48 475.91,-1071.85 499,-1244 510.58,-1330.34 540.13,-1363.21 499,-1440 489.43,-1457.86 475.86,-1473.49 460.42,-1487.03"/>
<polygon fill="green" stroke="green" points="458.11,-1484.4 452.7,-1493.51 462.61,-1489.76 458.11,-1484.4"/>
</g>
<!-- IG09 -->
<g id="node9" class="node">
<title>IG09</title>
<polygon fill="#ffffcc" stroke="black" points="530,-483 44,-483 44,-287 530,-287 530,-483"/>
<polygon fill="#fcfbfd" stroke="none" points="52,-291 52,-479 522,-479 522,-291 52,-291"/>
<text text-anchor="start" x="265.5" y="-454.4" font-family="Courier New" font-weight="bold" font-size="17.00">IG09</text>
<text text-anchor="start" x="183.5" y="-422.8" font-family="Courier New" font-size="14.00"> Weight: 0.5 Perfscore: 1</text>
<text text-anchor="start" x="278.5" y="-393.8" font-family="Courier New" font-size="14.00"> &#160;</text>
<text text-anchor="start" x="64" y="-364.8" font-family="Courier New" font-size="14.00">ldp &#160;&#160;&#160;&#160;fp, lr, [sp],#16</text>
<text text-anchor="start" x="64" y="-335.8" font-family="Courier New" font-size="14.00">b &#160;&#160;&#160;&#160;&#160;&#160;System.Runtime.CompilerServices.CastHelper</text>
<text text-anchor="start" x="64" y="-306.8" font-family="Courier New" font-size="14.00"> &#160;&#160;&#160;&#160;&#160;&#160;&#160;&#160;&#160;s:StelemRef_Helper(byref,long,System.Object)</text>
</g>
<!-- IG08&#45;&gt;IG09 -->
<g id="edge10" class="edge">
<title>IG08&#45;&gt;IG09</title>
<path fill="none" stroke="blue" d="M280.27,-518.62C280.3,-510.03 280.36,-501.49 280.45,-493.12"/>
<polygon fill="blue" stroke="blue" points="283.95,-493.07 280.58,-483.02 276.95,-492.98 283.95,-493.07"/>
</g>
<!-- IG08&#45;&gt;IG09 -->
<!-- IG09&#45;&gt;IG10 -->
</g>
</svg>
