<?xml version="1.0" encoding="UTF-8" standalone="no"?>
<!DOCTYPE svg PUBLIC "-//W3C//DTD SVG 1.1//EN"
 "http://www.w3.org/Graphics/SVG/1.1/DTD/svg11.dtd">
<!-- Generated by graphviz version 6.0.2 (20221011.1828)
 -->
<!-- Title: FlowGraph Pages: 1 -->
<svg width="551pt" height="1619pt"
 viewBox="0.00 0.00 550.78 1619.00" xmlns="http://www.w3.org/2000/svg" xmlns:xlink="http://www.w3.org/1999/xlink">
<g id="graph0" class="graph" transform="scale(1 1) rotate(0) translate(4 1615)">
<title>FlowGraph</title>
<polygon fill="white" stroke="none" points="-4,4 -4,-1615 546.78,-1615 546.78,4 -4,4"/>
<text text-anchor="middle" x="271.39" y="-52.8" font-family="Times New Roman,serif" font-size="14.00">System.Runtime.CompilerServices.CastHelpers:LdelemaRef(System.Array,int,long):byref</text>
<text text-anchor="middle" x="271.39" y="-37.8" font-family="Times New Roman,serif" font-size="14.00">generic ARM64 CPU &#45; Windows</text>
<text text-anchor="middle" x="271.39" y="-22.8" font-family="Times New Roman,serif" font-size="14.00">Optimized Code: True</text>
<text text-anchor="middle" x="271.39" y="-7.8" font-family="Times New Roman,serif" font-size="14.00"> Total Bytes of Code 80</text>
<g id="clust1" class="cluster">
<title>cluster_1</title>
<polygon fill="none" stroke="none" points="8,-76 8,-1603 524,-1603 524,-76 8,-76"/>
<text text-anchor="middle" x="266" y="-1587.8" font-family="Times New Roman,serif" font-size="14.00">System.Runtime.CompilerServices.CastHelpers:LdelemaRef(System.Array,int,long):byref</text>
<text text-anchor="middle" x="266" y="-1572.8" font-family="Times New Roman,serif" font-size="14.00">generic ARM64 CPU &#45; Windows</text>
<text text-anchor="middle" x="266" y="-1557.8" font-family="Times New Roman,serif" font-size="14.00">Optimized Code: True</text>
<text text-anchor="middle" x="266" y="-1542.8" font-family="Times New Roman,serif" font-size="14.00"> Total Bytes of Code 80</text>
</g>
<!-- IG01 -->
<g id="node1" class="node">
<title>IG01</title>
<polygon fill="#ffffcc" stroke="black" points="449.5,-1527 194.5,-1527 194.5,-1360 449.5,-1360 449.5,-1527"/>
<polygon fill="#fcfbfd" stroke="none" points="202.5,-1364 202.5,-1523 441.5,-1523 441.5,-1364 202.5,-1364"/>
<text text-anchor="start" x="301" y="-1497.9" font-family="Courier New" font-weight="bold" font-size="17.00">IG01</text>
<text text-anchor="start" x="219" y="-1466.3" font-family="Courier New" font-size="14.00"> Weight: 1 Perfscore: 1.5</text>
<text text-anchor="start" x="314" y="-1437.3" font-family="Courier New" font-size="14.00"> &#160;</text>
<text text-anchor="start" x="215" y="-1408.3" font-family="Courier New" font-size="14.00">stp &#160;&#160;&#160;&#160;fp, lr, [sp,#&#45;16]!</text>
<text text-anchor="start" x="215" y="-1379.3" font-family="Courier New" font-size="14.00">mov &#160;&#160;&#160;&#160;fp, sp</text>
</g>
<!-- IG02 -->
<g id="node2" class="node">
<title>IG02</title>
<polygon fill="#800026" stroke="black" points="449.5,-1324 194.5,-1324 194.5,-896 449.5,-896 449.5,-1324"/>
<polygon fill="#fcfbfd" stroke="none" points="202.5,-900 202.5,-1320 441.5,-1320 441.5,-900 202.5,-900"/>
<text text-anchor="start" x="301" y="-1295.4" font-family="Courier New" font-weight="bold" font-size="17.00">IG02</text>
<text text-anchor="start" x="215" y="-1263.8" font-family="Courier New" font-size="14.00"> Weight: 1 Perfscore: 14.5</text>
<text text-anchor="start" x="314" y="-1234.8" font-family="Courier New" font-size="14.00"> &#160;</text>
<text text-anchor="start" x="215" y="-1205.8" font-family="Courier New" font-size="14.00">ldr &#160;&#160;&#160;&#160;w3, [x0,#8]</text>
<text text-anchor="start" x="215" y="-1176.8" font-family="Courier New" font-size="14.00">cmp &#160;&#160;&#160;&#160;w1, w3</text>
<text text-anchor="start" x="215" y="-1148.8" font-family="Courier New" font-weight="bold" font-size="14.00">bhs &#160;&#160;&#160;&#160;IG06</text>
<text text-anchor="start" x="215" y="-1118.8" font-family="Courier New" font-size="14.00">sxtw &#160;&#160;&#160;x1, x1</text>
<text text-anchor="start" x="215" y="-1089.8" font-family="Courier New" font-size="14.00">lsl &#160;&#160;&#160;&#160;x1, x1, #3</text>
<text text-anchor="start" x="215" y="-1060.8" font-family="Courier New" font-size="14.00">add &#160;&#160;&#160;&#160;x1, x1, #16</text>
<text text-anchor="start" x="215" y="-1031.8" font-family="Courier New" font-size="14.00">add &#160;&#160;&#160;&#160;x1, x0, x1</text>
<text text-anchor="start" x="215" y="-1002.8" font-family="Courier New" font-size="14.00">ldr &#160;&#160;&#160;&#160;x0, [x0]</text>
<text text-anchor="start" x="215" y="-973.8" font-family="Courier New" font-size="14.00">ldr &#160;&#160;&#160;&#160;x0, [x0,#56]</text>
<text text-anchor="start" x="215" y="-944.8" font-family="Courier New" font-size="14.00">cmp &#160;&#160;&#160;&#160;x0, x2</text>
<text text-anchor="start" x="215" y="-916.8" font-family="Courier New" font-weight="bold" font-size="14.00">bne &#160;&#160;&#160;&#160;IG05</text>
</g>
<!-- IG01&#45;&gt;IG02 -->
<g id="edge1" class="edge">
<title>IG01&#45;&gt;IG02</title>
<path fill="none" stroke="blue" d="M316.07,-1359.7C315.89,-1351.64 315.75,-1343.22 315.63,-1334.57"/>
<polygon fill="blue" stroke="blue" points="319.13,-1334.26 315.5,-1324.3 312.13,-1334.34 319.13,-1334.26"/>
</g>
<!-- IG01&#45;&gt;IG02 -->
<!-- IG03 -->
<g id="node3" class="node">
<title>IG03</title>
<polygon fill="#ffffcc" stroke="black" points="392,-860 120,-860 120,-722 392,-722 392,-860"/>
<polygon fill="#fcfbfd" stroke="none" points="128,-726 128,-856 384,-856 384,-726 128,-726"/>
<text text-anchor="start" x="234.5" y="-831.4" font-family="Courier New" font-weight="bold" font-size="17.00">IG03</text>
<text text-anchor="start" x="140" y="-799.8" font-family="Courier New" font-size="14.00"> Weight: 0.5 Perfscore: 0.25</text>
<text text-anchor="start" x="247.5" y="-770.8" font-family="Courier New" font-size="14.00"> &#160;</text>
<text text-anchor="start" x="140" y="-741.8" font-family="Courier New" font-size="14.00">mov &#160;&#160;&#160;&#160;x0, x1</text>
</g>
<!-- IG02&#45;&gt;IG03 -->
<g id="edge4" class="edge">
<title>IG02&#45;&gt;IG03</title>
<path fill="none" stroke="blue" d="M271.23,-895.8C269.5,-886.88 267.86,-878.23 266.33,-869.97"/>
<polygon fill="blue" stroke="blue" points="269.76,-869.31 264.52,-860.1 262.88,-870.57 269.76,-869.31"/>
</g>
<!-- IG02&#45;&gt;IG03 -->
<!-- IG05 -->
<g id="node5" class="node">
<title>IG05</title>
<polygon fill="#ffffcc" stroke="black" points="482.5,-483 29.5,-483 29.5,-287 482.5,-287 482.5,-483"/>
<polygon fill="#fcfbfd" stroke="none" points="37.5,-291 37.5,-479 474.5,-479 474.5,-291 37.5,-291"/>
<text text-anchor="start" x="235" y="-454.4" font-family="Courier New" font-weight="bold" font-size="17.00">IG05</text>
<text text-anchor="start" x="153" y="-422.8" font-family="Courier New" font-size="14.00"> Weight: 0.5 Perfscore: 1</text>
<text text-anchor="start" x="248" y="-393.8" font-family="Courier New" font-size="14.00"> &#160;</text>
<text text-anchor="start" x="50" y="-364.8" font-family="Courier New" font-size="14.00">ldp &#160;&#160;&#160;&#160;fp, lr, [sp],#16</text>
<text text-anchor="start" x="50" y="-335.8" font-family="Courier New" font-size="14.00">b &#160;&#160;&#160;&#160;&#160;&#160;System.Runtime.CompilerServices.CastHelper</text>
<text text-anchor="start" x="50" y="-306.8" font-family="Courier New" font-size="14.00"> &#160;&#160;&#160;&#160;&#160;&#160;&#160;&#160;&#160;s:ThrowArrayMismatchException():byref</text>
</g>
<!-- IG02&#45;&gt;IG05 -->
<g id="edge3" class="edge">
<title>IG02&#45;&gt;IG05</title>
<path fill="none" stroke="blue" d="M398.16,-895.97C427.07,-779.97 441.81,-636.54 389,-519 384.74,-509.52 379.49,-500.34 373.55,-491.53"/>
<polygon fill="blue" stroke="blue" points="376.29,-489.35 367.65,-483.21 370.57,-493.39 376.29,-489.35"/>
</g>
<!-- IG06 -->
<g id="node6" class="node">
<title>IG06</title>
<polygon fill="#ffffcc" stroke="black" points="460,-251 164,-251 164,-84 460,-84 460,-251"/>
<polygon fill="#fcfbfd" stroke="none" points="172,-88 172,-247 452,-247 452,-88 172,-88"/>
<text text-anchor="start" x="290.5" y="-221.9" font-family="Courier New" font-weight="bold" font-size="17.00">IG06</text>
<text text-anchor="start" x="217" y="-190.3" font-family="Courier New" font-size="14.00"> Weight: 0 Perfscore: 0</text>
<text text-anchor="start" x="303.5" y="-161.3" font-family="Courier New" font-size="14.00"> &#160;</text>
<text text-anchor="start" x="184" y="-132.3" font-family="Courier New" font-size="14.00">bl &#160;&#160;&#160;&#160;&#160;CORINFO_HELP_RNGCHKFAIL</text>
<text text-anchor="start" x="184" y="-103.3" font-family="Courier New" font-size="14.00">bkpt</text>
</g>
<!-- IG02&#45;&gt;IG06 -->
<g id="edge2" class="edge">
<title>IG02&#45;&gt;IG06</title>
<path fill="none" stroke="blue" d="M441.47,-895.79C521.27,-722.76 594.49,-477.18 492,-287 485.43,-274.81 477,-263.67 467.38,-253.52"/>
<polygon fill="blue" stroke="blue" points="469.72,-250.91 460.17,-246.31 464.76,-255.86 469.72,-250.91"/>
</g>
<!-- IG04 -->
<g id="node4" class="node">
<title>IG04</title>
<polygon fill="#ffffcc" stroke="black" points="379.5,-686 132.5,-686 132.5,-519 379.5,-519 379.5,-686"/>
<polygon fill="#fcfbfd" stroke="none" points="140.5,-523 140.5,-682 371.5,-682 371.5,-523 140.5,-523"/>
<text text-anchor="start" x="235" y="-656.9" font-family="Courier New" font-weight="bold" font-size="17.00">IG04</text>
<text text-anchor="start" x="153" y="-625.3" font-family="Courier New" font-size="14.00"> Weight: 0.5 Perfscore: 1</text>
<text text-anchor="start" x="248" y="-596.3" font-family="Courier New" font-size="14.00"> &#160;</text>
<text text-anchor="start" x="153" y="-567.3" font-family="Courier New" font-size="14.00">ldp &#160;&#160;&#160;&#160;fp, lr, [sp],#16</text>
<text text-anchor="start" x="153" y="-538.3" font-family="Courier New" font-size="14.00">ret &#160;&#160;&#160;&#160;lr</text>
</g>
<!-- IG03&#45;&gt;IG04 -->
<g id="edge5" class="edge">
<title>IG03&#45;&gt;IG04</title>
<path fill="none" stroke="blue" d="M249.47,-721.88C249.32,-713.5 249.25,-704.83 249.25,-696.17"/>
<polygon fill="blue" stroke="blue" points="252.75,-696.04 249.29,-686.02 245.75,-696.01 252.75,-696.04"/>
</g>
<!-- IG03&#45;&gt;IG04 -->
<!-- IG04&#45;&gt;IG05 -->
<!-- IG05&#45;&gt;IG06 -->
</g>
</svg>
